<?xml version="1.0" encoding="UTF-8"?>
<svg width="253px" height="255px" viewBox="0 0 253 255" version="1.1" xmlns="http://www.w3.org/2000/svg" xmlns:xlink="http://www.w3.org/1999/xlink">
    <!-- Generator: Sketch 55 (78076) - https://sketchapp.com -->
    <title>petje-af-icon@2x</title>
    <desc>Created with Sketch.</desc>
    <g id="Page-1" stroke="none" stroke-width="1" fill="none" fill-rule="evenodd">
        <g id="petje-af-icon" fill="#510FA8" fill-rule="nonzero">
            <path d="M233.258493,56.7590713 C229.429345,55.9611193 225.461328,55.54169 221.395349,55.54169 C189.442402,55.54169 163.539422,81.444672 163.539422,113.397617 C163.539422,145.350564 189.442402,171.253546 221.395349,171.253546 C231.446678,171.253546 240.899349,168.69039 249.135399,164.182046 C242.577331,185.867859 230.388665,205.108793 214.269998,220.204249 L194.906355,175.708544 C188.799036,173.482724 184.356446,171.599174 181.578588,170.057898 C178.800729,168.51662 175.149517,165.909376 170.624953,162.236163 L118.940065,177.781447 C112.028539,179.207982 106.939936,179.92125 103.674255,179.92125 C100.408574,179.92125 96.2091175,178.861946 91.075886,176.743336 L74.5262896,168.40722 C75.8682573,165.102797 77.1105084,162.544269 78.2530425,160.731639 C79.3955766,158.919007 81.1206314,156.275123 83.428207,152.799985 L84.3696213,129.864266 C80.2299962,126.090673 76.9488856,123.366763 74.5262896,121.692538 C72.1036934,120.018313 68.987243,118.32095 65.176938,116.600449 C64.9508191,109.359607 64.9508191,103.928289 65.176938,100.306496 C65.4030568,96.6847018 66.0637023,91.5343241 67.1588746,84.85536 C64.1299368,85.2442746 61.624088,85.7367144 59.6413279,86.332678 C58.6016482,86.645178 56.0068999,88.25856 53.9627777,90.3292755 C52.726646,91.5814891 50.7354304,94.5132502 47.9891307,99.1245619 C43.7903125,127.554911 42.3519223,148.592112 43.67396,162.236163 C44.9959979,175.880214 48.4256037,186.61333 53.9627777,194.435511 C64.3688686,208.87477 76.7399046,217.173056 91.075886,219.330367 C105.411867,221.487677 130.270547,217.068464 165.651923,206.072728 L165.651923,248.681097 C153.544263,252.504222 140.654439,254.56608 127.28304,254.56608 C56.9865582,254.56608 0,197.579523 0,127.283041 C0,56.9865585 56.9865582,0 127.28304,0 C142.120093,0 156.364217,2.53863665 169.60474,7.20524145 C164.61462,16.4511181 161.229638,22.7073325 159.449793,25.9738835 C155.405831,33.395773 152.831571,37.4265838 153.63574,37.8910586 C155.01873,38.68985 143.468735,33.5572212 118.985757,22.4931706 C101.802036,36.0132301 90.1807859,48.2268145 84.1220078,59.1339207 C78.0632298,70.041027 73.1649314,87.618304 69.4271129,111.86575 L100.204288,132.458669 L82.2521438,165.425459 L91.0599695,171.253546 L178.22429,10.6033137 C200.700002,20.4298419 219.7898,36.5601578 233.258493,56.7590713 L233.258493,56.7590713 Z M253.023256,129.597278 C251.960978,133.490027 250.878961,136.391719 249.777206,138.302352 C248.67545,140.212986 246.514643,142.934908 243.294788,146.468117 C238.225802,150.574351 234.246844,153.152505 231.357912,154.202581 C228.468982,155.252657 224.138506,155.793563 218.366488,155.825298 C213.935999,154.41298 210.544039,152.9274 208.190605,151.368555 C205.837172,149.80971 202.781767,147.191856 199.02439,143.51499 C210.86819,142.638952 219.817173,141.693357 225.871341,140.678205 C231.925508,139.663052 240.976147,135.969409 253.023256,129.597278 Z" id="Combined-Shape"></path>
        </g>
    </g>
</svg>